<svg width="1440" height="1192" viewBox="0 0 1440 1192" fill="none" xmlns="http://www.w3.org/2000/svg">
<path d="M1084.79 820.367C1104.29 809.105 1122.83 805.405 1140.39 809.267C1157.67 812.628 1171.51 823.312 1181.91 841.317C1192.3 859.322 1194.78 876.897 1189.34 894.041C1183.61 910.686 1170.99 924.639 1151.49 935.9C1131.98 947.162 1113.59 951.112 1096.31 947.75C1078.75 943.889 1064.76 932.956 1054.37 914.95C1043.97 896.945 1041.64 879.62 1047.37 862.976C1052.81 845.831 1065.28 831.629 1084.79 820.367Z" fill="#654C6A" fill-opacity="0.08"/>
<rect x="1460.46" y="943.574" width="1039.53" height="86.6276" transform="rotate(-120 1460.46 943.574)" fill="#FFB91D" fill-opacity="0.08"/>
<rect x="92.1723" y="1652.95" width="1039.53" height="86.6276" transform="rotate(-60 92.1723 1652.95)" fill="#FFB91D" fill-opacity="0.08"/>
</svg>
